<svg width="64" height="64" viewBox="0 0 64 64" fill="none" xmlns="http://www.w3.org/2000/svg">
<g clip-path="url(#clip0_197_5826)">
<path d="M0 31.9999C0 35.7333 0.666667 39.3333 1.8 42.6666H62.1333C63.3333 39.3333 64 35.7333 64 31.9999C64 28.2666 63.3333 24.6666 62.2 21.3333H1.8C0.666667 24.6666 0 28.2666 0 31.9999Z" fill="#231D9A"/>
<path d="M1.80078 21.3333H62.1341C57.8008 8.93333 45.9341 0 32.0008 0C18.0674 0 6.20078 8.93333 1.80078 21.3333Z" fill="white"/>
<path d="M62.2008 42.6667H1.80078C6.20078 55.0667 18.0674 64.0001 32.0008 64.0001C45.9341 64.0001 57.8008 55.0667 62.2008 42.6667Z" fill="#F0263C"/>
<path d="M17.3351 22.6669L16.0018 20.0002L14.6684 22.6669L13.3351 21.3336L10.8018 23.8669C11.3351 26.2669 13.4684 28.0002 16.0018 28.0002C18.5351 28.0002 20.6684 26.2002 21.2018 23.8669L18.6684 21.3336L17.3351 22.6669Z" fill="white"/>
<path d="M16.0013 13.3335C12.668 13.3335 10.668 14.6668 10.668 14.6668V22.6668C10.668 23.0668 10.7346 23.4668 10.8013 23.8668L13.3346 21.3335L14.668 22.6668L16.0013 20.0002L17.3346 22.6668L18.668 21.3335L21.2013 23.8668C21.268 23.4668 21.3346 23.0668 21.3346 22.6668V14.6668C21.3346 14.6668 19.3346 13.3335 16.0013 13.3335Z" fill="#231D9A"/>
<path d="M14.3249 15.6196L13.335 14.6296L12.345 15.6196L13.335 16.6095L14.3249 15.6196Z" fill="#FFD400"/>
<path d="M16.9909 17.6196L16.001 16.6296L15.011 17.6196L16.001 18.6095L16.9909 17.6196Z" fill="#FFD400"/>
<path d="M19.6579 15.6196L18.668 14.6296L17.678 15.6196L18.668 16.6095L19.6579 15.6196Z" fill="#FFD400"/>
</g>
<defs>
<clipPath id="clip0_197_5826">
<rect width="64" height="64" fill="white"/>
</clipPath>
</defs>
</svg>
