<svg width="64" height="64" viewBox="0 0 64 64" fill="none" xmlns="http://www.w3.org/2000/svg">
<g clip-path="url(#clip0_197_5896)">
<path d="M32 0C14.3333 0 0 14.3333 0 32H64C64 14.3333 49.6667 0 32 0Z" fill="white"/>
<path d="M32.0003 42.6667L29.3337 41.3333L28.0003 40V41.3333H26.667V42.6667H32.0003Z" fill="#78C9FF"/>
<path d="M39.9997 40.0001L38.6663 38.6667L37.333 41.3334H39.9997V40.0001Z" fill="#78C9FF"/>
<path d="M40 32V34.6667L41.3333 32H40Z" fill="#78C9FF"/>
<path d="M42.667 34.6667H44.0003L45.3337 32H44.0003L42.667 33.3333V34.6667Z" fill="#78C9FF"/>
<path d="M25.3333 38.6667L24 40.0001V41.3334H26.6667L25.3333 38.6667Z" fill="#78C9FF"/>
<path d="M22.667 32L24.0003 34.6667V32H22.667Z" fill="#78C9FF"/>
<path d="M37.3333 41.3333H36V40L34.6667 41.3333L32 42.6667H37.3333V41.3333Z" fill="#78C9FF"/>
<path d="M23.9997 37.3333L21.333 36L22.6663 38.6667L23.9997 37.3333Z" fill="#78C9FF"/>
<path d="M21.3337 34.6667V33.3333L20.0003 32H18.667L20.0003 34.6667H21.3337Z" fill="#78C9FF"/>
<path d="M41.3333 38.6667L42.6667 36L40 37.3333L41.3333 38.6667Z" fill="#78C9FF"/>
<path d="M48 32L46.6667 34.6667L45.3333 36L44 37.3333L46.6667 38.6667L45.3333 40H42.6667L44 41.3333H45.3333V44L42.6667 42.6667H41.3333H40V44H37.3333V45.3333H26.6667V44H24V42.6667H22.6667H21.3333L18.6667 44V41.3333H20L21.3333 40H18.6667L17.3333 38.6667L20 37.3333L18.6667 36L17.3333 34.6667L16 32H0C0 49.6667 14.3333 64 32 64C49.6667 64 64 49.6667 64 32H48Z" fill="#78C9FF"/>
<path d="M26.667 34.6667H28.0003V29.3334H29.3337V34.6667H30.667V29.3334H33.3337V34.6667H34.667V29.3334H36.0003V34.6667H37.3337V28.0001H34.667L32.0003 26.6667L29.3337 28.0001H26.667V34.6667Z" fill="#78C9FF"/>
<path d="M29.3333 29.3335H28V34.6668H29.3333V29.3335Z" fill="white"/>
<path d="M36.0003 29.3335H34.667V34.6668H36.0003V29.3335Z" fill="white"/>
<path d="M33.3337 29.3335H30.667V34.6668H33.3337V29.3335Z" fill="white"/>
<path d="M25.3333 30.6667L24 31.3334V32.0001V34.6667H25.3333V36.0001L26.6667 37.3334L28 40.0001L29.3333 41.3334L32 42.6667L34.6667 41.3334L36 40.0001L37.3333 37.3334L38.6667 36.0001V34.6667H40V32.0001V31.3334L38.6667 30.6667V28.0001L40 29.3334V28.0001L37.3333 25.3334H36V24.0001L37.3333 22.6667L38.6667 21.3334L36 18.6667H33.3333V16.0001L32 14.6667L30.6667 16.0001V18.6667H28L25.3333 21.3334L26.6667 22.6667L28 24.0001V25.3334H26.6667L24 28.0001V29.3334L25.3333 28.0001V30.6667ZM34 20.0001H35.3333L36.6667 21.3334L35.3333 22.6667H34V20.0001ZM29.3333 20.0001H30.6667V22.6667H29.3333L28 21.3334L29.3333 20.0001ZM29.3333 28.0001L32 26.6667L34.6667 28.0001H37.3333V34.6667L34.6667 38.6667L32 40.6667L29.3333 38.6667L26.6667 34.6667V28.0001H29.3333Z" fill="#CC9500"/>
<path d="M34.667 34.6667H33.3337H30.667H29.3337H28.0003H26.667L29.3337 38.6667L32.0003 40.6667L34.667 38.6667L37.3337 34.6667H36.0003H34.667Z" fill="#1E5B00"/>
<path d="M30.6667 22.6667V20H29.3333L28 21.3333L29.3333 22.6667H30.6667Z" fill="white"/>
<path d="M36.6667 21.3333L35.3333 20H34V22.6667H35.3333L36.6667 21.3333Z" fill="white"/>
<path d="M18.6667 36.0001L20 37.3334L17.3333 38.6667L18.6667 40.0001H21.3333L20 41.3334H18.6667V44.0001L21.3333 42.6667H22.6667V41.3334H24V40.0001L25.3333 38.6667L26.6667 41.3334H28V40.0001L26.6667 37.3334L25.3333 36.0001V34.6667H24L22.6667 32.0001L24 31.3334L25.3333 30.6667V28.0001L24 29.3334L22.6667 30.6667V28.0001L24 26.6667L25.3333 25.3334V22.6667L22.6667 24.0001L21.3333 25.3334V28.0001V30.6667L20 28.0001H18.6667V29.3334L20 32.0001L21.3333 33.3334V34.6667H20L18.6667 32.0001H16L17.3333 34.6667L18.6667 36.0001ZM24 37.3334L22.6667 38.6667L21.3333 36.0001L24 37.3334Z" fill="#1E5B00"/>
<path d="M38.6667 30.6667L40 31.3334L41.3333 32.0001L40 34.6667H38.6667V36.0001L37.3333 37.3334L36 40.0001V41.3334H37.3333L38.6667 38.6667L40 40.0001V41.3334H41.3333V42.6667H42.6667L45.3333 44.0001V41.3334H44L42.6667 40.0001H45.3333L46.6667 38.6667L44 37.3334L45.3333 36.0001L46.6667 34.6667L48 32.0001H45.3333L44 34.6667H42.6667V33.3334L44 32.0001L45.3333 29.3334V28.0001H44L42.6667 30.6667V28.0001V25.3334L41.3333 24.0001L38.6667 22.6667V25.3334L40 26.6667L41.3333 28.0001V30.6667L40 29.3334L38.6667 28.0001V30.6667ZM41.3333 38.6667L40 37.3334L42.6667 36.0001L41.3333 38.6667Z" fill="#1E5B00"/>
<path d="M40.0003 41.3335H37.3337V42.6668H32.0003H26.667V41.3335H24.0003H22.667V42.6668H24.0003V44.0002H26.667V45.3335H37.3337V44.0002H40.0003V42.6668H41.3337V41.3335H40.0003Z" fill="white"/>
</g>
<defs>
<clipPath id="clip0_197_5896">
<rect width="64" height="64" fill="white"/>
</clipPath>
</defs>
</svg>
